<?xml version="1.0"?>
<!-- Generated by SVGo -->
<svg width="800" height="600"
     xmlns="http://www.w3.org/2000/svg"
     xmlns:xlink="http://www.w3.org/1999/xlink">
<title>xhist</title>
<rect x="0" y="0" width="800" height="600" style="fill: #ffffff" />
<g style="font-family: Helvetica; font-size: 12">
<rect x="0" y="0" width="400" height="300" style="stroke: #ffffff; opacity: 1.0000; fill: #ffffff; fill-opacity: 1.0000" />
<text x="200" y="17"  style="text-anchor:middle; font-size: 13" >test</text>
<line x1="60" y1="264" x2="60" y2="276" style="stroke:#000000; stroke-width: 1; fill:none; opacity: 1.000; " />
<text x="60" y="294"  style="text-anchor:middle" >-50</text>
<line x1="139" y1="264" x2="139" y2="276" style="stroke:#000000; stroke-width: 1; fill:none; opacity: 1.000; " />
<text x="139" y="294"  style="text-anchor:middle" >0</text>
<line x1="218" y1="264" x2="218" y2="276" style="stroke:#000000; stroke-width: 1; fill:none; opacity: 1.000; " />
<text x="218" y="294"  style="text-anchor:middle" >50</text>
<line x1="297" y1="264" x2="297" y2="276" style="stroke:#000000; stroke-width: 1; fill:none; opacity: 1.000; " />
<text x="297" y="294"  style="text-anchor:middle" >100</text>
<line x1="376" y1="264" x2="376" y2="276" style="stroke:#000000; stroke-width: 1; fill:none; opacity: 1.000; " />
<text x="376" y="294"  style="text-anchor:middle" >150</text>
<line x1="60" y1="270" x2="376" y2="270" style="stroke:#000000; stroke-width: 2; fill:none; opacity: 1.000; " />
<line x1="42" y1="258" x2="54" y2="258" style="stroke:#000000; stroke-width: 1; fill:none; opacity: 1.000; " />
<text x="36" y="262"  style="text-anchor:end" >0</text>
<line x1="42" y1="222" x2="54" y2="222" style="stroke:#000000; stroke-width: 1; fill:none; opacity: 1.000; " />
<text x="36" y="226"  style="text-anchor:end" >20</text>
<line x1="42" y1="186" x2="54" y2="186" style="stroke:#000000; stroke-width: 1; fill:none; opacity: 1.000; " />
<text x="36" y="190"  style="text-anchor:end" >40</text>
<line x1="42" y1="150" x2="54" y2="150" style="stroke:#000000; stroke-width: 1; fill:none; opacity: 1.000; " />
<text x="36" y="154"  style="text-anchor:end" >60</text>
<line x1="42" y1="114" x2="54" y2="114" style="stroke:#000000; stroke-width: 1; fill:none; opacity: 1.000; " />
<text x="36" y="118"  style="text-anchor:end" >80</text>
<line x1="42" y1="78" x2="54" y2="78" style="stroke:#000000; stroke-width: 1; fill:none; opacity: 1.000; " />
<text x="36" y="82"  style="text-anchor:end" >100</text>
<line x1="42" y1="42" x2="54" y2="42" style="stroke:#000000; stroke-width: 1; fill:none; opacity: 1.000; " />
<text x="36" y="46"  style="text-anchor:end" >120</text>
<line x1="48" y1="258" x2="48" y2="42" style="stroke:#000000; stroke-width: 2; fill:none; opacity: 1.000; " />
<rect x="139" y="78" width="158" height="2" style="stroke:#ff0000; stroke-opacity: 1.000; stroke-width: 1; fill: #ff8080; fill-opacity: 1.000" />
<rect x="139" y="80" width="158" height="2" style="stroke:#ff0000; stroke-opacity: 1.000; stroke-width: 1; fill: #ff8080; fill-opacity: 1.000" />
<rect x="139" y="82" width="158" height="2" style="stroke:#ff0000; stroke-opacity: 1.000; stroke-width: 1; fill: #ff8080; fill-opacity: 1.000" />
<rect x="139" y="84" width="158" height="2" style="stroke:#ff0000; stroke-opacity: 1.000; stroke-width: 1; fill: #ff8080; fill-opacity: 1.000" />
<rect x="139" y="86" width="158" height="1" style="stroke:#ff0000; stroke-opacity: 1.000; stroke-width: 1; fill: #ff8080; fill-opacity: 1.000" />
<rect x="139" y="87" width="158" height="2" style="stroke:#ff0000; stroke-opacity: 1.000; stroke-width: 1; fill: #ff8080; fill-opacity: 1.000" />
<rect x="139" y="89" width="158" height="2" style="stroke:#ff0000; stroke-opacity: 1.000; stroke-width: 1; fill: #ff8080; fill-opacity: 1.000" />
<rect x="139" y="91" width="158" height="2" style="stroke:#ff0000; stroke-opacity: 1.000; stroke-width: 1; fill: #ff8080; fill-opacity: 1.000" />
<rect x="139" y="93" width="158" height="2" style="stroke:#ff0000; stroke-opacity: 1.000; stroke-width: 1; fill: #ff8080; fill-opacity: 1.000" />
<rect x="139" y="95" width="158" height="1" style="stroke:#ff0000; stroke-opacity: 1.000; stroke-width: 1; fill: #ff8080; fill-opacity: 1.000" />
<rect x="139" y="96" width="158" height="2" style="stroke:#ff0000; stroke-opacity: 1.000; stroke-width: 1; fill: #ff8080; fill-opacity: 1.000" />
<rect x="139" y="98" width="158" height="2" style="stroke:#ff0000; stroke-opacity: 1.000; stroke-width: 1; fill: #ff8080; fill-opacity: 1.000" />
<rect x="139" y="100" width="158" height="2" style="stroke:#ff0000; stroke-opacity: 1.000; stroke-width: 1; fill: #ff8080; fill-opacity: 1.000" />
<rect x="139" y="102" width="158" height="2" style="stroke:#ff0000; stroke-opacity: 1.000; stroke-width: 1; fill: #ff8080; fill-opacity: 1.000" />
<rect x="139" y="104" width="158" height="1" style="stroke:#ff0000; stroke-opacity: 1.000; stroke-width: 1; fill: #ff8080; fill-opacity: 1.000" />
<rect x="139" y="105" width="158" height="2" style="stroke:#ff0000; stroke-opacity: 1.000; stroke-width: 1; fill: #ff8080; fill-opacity: 1.000" />
<rect x="139" y="107" width="158" height="2" style="stroke:#ff0000; stroke-opacity: 1.000; stroke-width: 1; fill: #ff8080; fill-opacity: 1.000" />
<rect x="139" y="109" width="158" height="2" style="stroke:#ff0000; stroke-opacity: 1.000; stroke-width: 1; fill: #ff8080; fill-opacity: 1.000" />
<rect x="139" y="111" width="158" height="2" style="stroke:#ff0000; stroke-opacity: 1.000; stroke-width: 1; fill: #ff8080; fill-opacity: 1.000" />
<rect x="139" y="113" width="158" height="1" style="stroke:#ff0000; stroke-opacity: 1.000; stroke-width: 1; fill: #ff8080; fill-opacity: 1.000" />
<rect x="139" y="114" width="158" height="2" style="stroke:#ff0000; stroke-opacity: 1.000; stroke-width: 1; fill: #ff8080; fill-opacity: 1.000" />
<rect x="139" y="116" width="158" height="2" style="stroke:#ff0000; stroke-opacity: 1.000; stroke-width: 1; fill: #ff8080; fill-opacity: 1.000" />
<rect x="139" y="118" width="158" height="2" style="stroke:#ff0000; stroke-opacity: 1.000; stroke-width: 1; fill: #ff8080; fill-opacity: 1.000" />
<rect x="139" y="120" width="158" height="2" style="stroke:#ff0000; stroke-opacity: 1.000; stroke-width: 1; fill: #ff8080; fill-opacity: 1.000" />
<rect x="139" y="122" width="158" height="1" style="stroke:#ff0000; stroke-opacity: 1.000; stroke-width: 1; fill: #ff8080; fill-opacity: 1.000" />
<rect x="139" y="123" width="158" height="2" style="stroke:#ff0000; stroke-opacity: 1.000; stroke-width: 1; fill: #ff8080; fill-opacity: 1.000" />
<rect x="139" y="125" width="158" height="2" style="stroke:#ff0000; stroke-opacity: 1.000; stroke-width: 1; fill: #ff8080; fill-opacity: 1.000" />
<rect x="139" y="127" width="158" height="2" style="stroke:#ff0000; stroke-opacity: 1.000; stroke-width: 1; fill: #ff8080; fill-opacity: 1.000" />
<rect x="139" y="129" width="158" height="2" style="stroke:#ff0000; stroke-opacity: 1.000; stroke-width: 1; fill: #ff8080; fill-opacity: 1.000" />
<rect x="139" y="131" width="158" height="1" style="stroke:#ff0000; stroke-opacity: 1.000; stroke-width: 1; fill: #ff8080; fill-opacity: 1.000" />
<rect x="139" y="132" width="158" height="2" style="stroke:#ff0000; stroke-opacity: 1.000; stroke-width: 1; fill: #ff8080; fill-opacity: 1.000" />
<rect x="139" y="134" width="158" height="2" style="stroke:#ff0000; stroke-opacity: 1.000; stroke-width: 1; fill: #ff8080; fill-opacity: 1.000" />
<rect x="139" y="136" width="158" height="2" style="stroke:#ff0000; stroke-opacity: 1.000; stroke-width: 1; fill: #ff8080; fill-opacity: 1.000" />
<rect x="139" y="138" width="158" height="2" style="stroke:#ff0000; stroke-opacity: 1.000; stroke-width: 1; fill: #ff8080; fill-opacity: 1.000" />
<rect x="139" y="140" width="158" height="2" style="stroke:#ff0000; stroke-opacity: 1.000; stroke-width: 1; fill: #ff8080; fill-opacity: 1.000" />
<rect x="139" y="142" width="158" height="1" style="stroke:#ff0000; stroke-opacity: 1.000; stroke-width: 1; fill: #ff8080; fill-opacity: 1.000" />
<rect x="139" y="143" width="158" height="2" style="stroke:#ff0000; stroke-opacity: 1.000; stroke-width: 1; fill: #ff8080; fill-opacity: 1.000" />
<rect x="139" y="145" width="158" height="2" style="stroke:#ff0000; stroke-opacity: 1.000; stroke-width: 1; fill: #ff8080; fill-opacity: 1.000" />
<rect x="139" y="147" width="158" height="2" style="stroke:#ff0000; stroke-opacity: 1.000; stroke-width: 1; fill: #ff8080; fill-opacity: 1.000" />
<rect x="139" y="149" width="158" height="1" style="stroke:#ff0000; stroke-opacity: 1.000; stroke-width: 1; fill: #ff8080; fill-opacity: 1.000" />
<rect x="139" y="150" width="158" height="2" style="stroke:#ff0000; stroke-opacity: 1.000; stroke-width: 1; fill: #ff8080; fill-opacity: 1.000" />
<rect x="139" y="152" width="158" height="2" style="stroke:#ff0000; stroke-opacity: 1.000; stroke-width: 1; fill: #ff8080; fill-opacity: 1.000" />
<rect x="139" y="154" width="158" height="2" style="stroke:#ff0000; stroke-opacity: 1.000; stroke-width: 1; fill: #ff8080; fill-opacity: 1.000" />
<rect x="139" y="156" width="158" height="2" style="stroke:#ff0000; stroke-opacity: 1.000; stroke-width: 1; fill: #ff8080; fill-opacity: 1.000" />
<rect x="139" y="158" width="158" height="1" style="stroke:#ff0000; stroke-opacity: 1.000; stroke-width: 1; fill: #ff8080; fill-opacity: 1.000" />
<rect x="139" y="159" width="158" height="2" style="stroke:#ff0000; stroke-opacity: 1.000; stroke-width: 1; fill: #ff8080; fill-opacity: 1.000" />
<rect x="139" y="161" width="158" height="2" style="stroke:#ff0000; stroke-opacity: 1.000; stroke-width: 1; fill: #ff8080; fill-opacity: 1.000" />
<rect x="139" y="163" width="158" height="2" style="stroke:#ff0000; stroke-opacity: 1.000; stroke-width: 1; fill: #ff8080; fill-opacity: 1.000" />
<rect x="139" y="165" width="158" height="2" style="stroke:#ff0000; stroke-opacity: 1.000; stroke-width: 1; fill: #ff8080; fill-opacity: 1.000" />
<rect x="139" y="167" width="158" height="1" style="stroke:#ff0000; stroke-opacity: 1.000; stroke-width: 1; fill: #ff8080; fill-opacity: 1.000" />
<rect x="139" y="168" width="158" height="2" style="stroke:#ff0000; stroke-opacity: 1.000; stroke-width: 1; fill: #ff8080; fill-opacity: 1.000" />
<rect x="139" y="170" width="158" height="2" style="stroke:#ff0000; stroke-opacity: 1.000; stroke-width: 1; fill: #ff8080; fill-opacity: 1.000" />
<rect x="139" y="172" width="158" height="2" style="stroke:#ff0000; stroke-opacity: 1.000; stroke-width: 1; fill: #ff8080; fill-opacity: 1.000" />
<rect x="139" y="174" width="158" height="2" style="stroke:#ff0000; stroke-opacity: 1.000; stroke-width: 1; fill: #ff8080; fill-opacity: 1.000" />
<rect x="139" y="176" width="158" height="1" style="stroke:#ff0000; stroke-opacity: 1.000; stroke-width: 1; fill: #ff8080; fill-opacity: 1.000" />
<rect x="139" y="177" width="158" height="2" style="stroke:#ff0000; stroke-opacity: 1.000; stroke-width: 1; fill: #ff8080; fill-opacity: 1.000" />
<rect x="139" y="179" width="158" height="2" style="stroke:#ff0000; stroke-opacity: 1.000; stroke-width: 1; fill: #ff8080; fill-opacity: 1.000" />
<rect x="139" y="181" width="158" height="2" style="stroke:#ff0000; stroke-opacity: 1.000; stroke-width: 1; fill: #ff8080; fill-opacity: 1.000" />
<rect x="139" y="183" width="158" height="2" style="stroke:#ff0000; stroke-opacity: 1.000; stroke-width: 1; fill: #ff8080; fill-opacity: 1.000" />
<rect x="139" y="185" width="158" height="1" style="stroke:#ff0000; stroke-opacity: 1.000; stroke-width: 1; fill: #ff8080; fill-opacity: 1.000" />
<rect x="139" y="186" width="158" height="2" style="stroke:#ff0000; stroke-opacity: 1.000; stroke-width: 1; fill: #ff8080; fill-opacity: 1.000" />
<rect x="139" y="188" width="158" height="2" style="stroke:#ff0000; stroke-opacity: 1.000; stroke-width: 1; fill: #ff8080; fill-opacity: 1.000" />
<rect x="139" y="190" width="158" height="2" style="stroke:#ff0000; stroke-opacity: 1.000; stroke-width: 1; fill: #ff8080; fill-opacity: 1.000" />
<rect x="139" y="192" width="158" height="2" style="stroke:#ff0000; stroke-opacity: 1.000; stroke-width: 1; fill: #ff8080; fill-opacity: 1.000" />
<rect x="139" y="194" width="158" height="1" style="stroke:#ff0000; stroke-opacity: 1.000; stroke-width: 1; fill: #ff8080; fill-opacity: 1.000" />
<rect x="139" y="195" width="158" height="2" style="stroke:#ff0000; stroke-opacity: 1.000; stroke-width: 1; fill: #ff8080; fill-opacity: 1.000" />
<rect x="139" y="197" width="158" height="2" style="stroke:#ff0000; stroke-opacity: 1.000; stroke-width: 1; fill: #ff8080; fill-opacity: 1.000" />
<rect x="139" y="199" width="158" height="2" style="stroke:#ff0000; stroke-opacity: 1.000; stroke-width: 1; fill: #ff8080; fill-opacity: 1.000" />
<rect x="139" y="201" width="158" height="2" style="stroke:#ff0000; stroke-opacity: 1.000; stroke-width: 1; fill: #ff8080; fill-opacity: 1.000" />
<rect x="139" y="203" width="158" height="1" style="stroke:#ff0000; stroke-opacity: 1.000; stroke-width: 1; fill: #ff8080; fill-opacity: 1.000" />
<rect x="139" y="204" width="158" height="2" style="stroke:#ff0000; stroke-opacity: 1.000; stroke-width: 1; fill: #ff8080; fill-opacity: 1.000" />
<rect x="139" y="206" width="158" height="2" style="stroke:#ff0000; stroke-opacity: 1.000; stroke-width: 1; fill: #ff8080; fill-opacity: 1.000" />
<rect x="139" y="208" width="158" height="2" style="stroke:#ff0000; stroke-opacity: 1.000; stroke-width: 1; fill: #ff8080; fill-opacity: 1.000" />
<rect x="139" y="210" width="158" height="2" style="stroke:#ff0000; stroke-opacity: 1.000; stroke-width: 1; fill: #ff8080; fill-opacity: 1.000" />
<rect x="139" y="212" width="158" height="1" style="stroke:#ff0000; stroke-opacity: 1.000; stroke-width: 1; fill: #ff8080; fill-opacity: 1.000" />
<rect x="139" y="213" width="158" height="2" style="stroke:#ff0000; stroke-opacity: 1.000; stroke-width: 1; fill: #ff8080; fill-opacity: 1.000" />
<rect x="139" y="215" width="158" height="2" style="stroke:#ff0000; stroke-opacity: 1.000; stroke-width: 1; fill: #ff8080; fill-opacity: 1.000" />
<rect x="139" y="217" width="158" height="2" style="stroke:#ff0000; stroke-opacity: 1.000; stroke-width: 1; fill: #ff8080; fill-opacity: 1.000" />
<rect x="139" y="219" width="158" height="2" style="stroke:#ff0000; stroke-opacity: 1.000; stroke-width: 1; fill: #ff8080; fill-opacity: 1.000" />
<rect x="139" y="221" width="158" height="1" style="stroke:#ff0000; stroke-opacity: 1.000; stroke-width: 1; fill: #ff8080; fill-opacity: 1.000" />
<rect x="139" y="222" width="158" height="2" style="stroke:#ff0000; stroke-opacity: 1.000; stroke-width: 1; fill: #ff8080; fill-opacity: 1.000" />
<rect x="139" y="224" width="158" height="2" style="stroke:#ff0000; stroke-opacity: 1.000; stroke-width: 1; fill: #ff8080; fill-opacity: 1.000" />
<rect x="139" y="226" width="158" height="2" style="stroke:#ff0000; stroke-opacity: 1.000; stroke-width: 1; fill: #ff8080; fill-opacity: 1.000" />
<rect x="139" y="228" width="158" height="2" style="stroke:#ff0000; stroke-opacity: 1.000; stroke-width: 1; fill: #ff8080; fill-opacity: 1.000" />
<rect x="139" y="230" width="158" height="1" style="stroke:#ff0000; stroke-opacity: 1.000; stroke-width: 1; fill: #ff8080; fill-opacity: 1.000" />
<rect x="139" y="231" width="158" height="2" style="stroke:#ff0000; stroke-opacity: 1.000; stroke-width: 1; fill: #ff8080; fill-opacity: 1.000" />
<rect x="139" y="233" width="158" height="2" style="stroke:#ff0000; stroke-opacity: 1.000; stroke-width: 1; fill: #ff8080; fill-opacity: 1.000" />
<rect x="139" y="235" width="158" height="2" style="stroke:#ff0000; stroke-opacity: 1.000; stroke-width: 1; fill: #ff8080; fill-opacity: 1.000" />
<rect x="139" y="237" width="158" height="2" style="stroke:#ff0000; stroke-opacity: 1.000; stroke-width: 1; fill: #ff8080; fill-opacity: 1.000" />
<rect x="139" y="239" width="158" height="1" style="stroke:#ff0000; stroke-opacity: 1.000; stroke-width: 1; fill: #ff8080; fill-opacity: 1.000" />
<rect x="139" y="240" width="158" height="2" style="stroke:#ff0000; stroke-opacity: 1.000; stroke-width: 1; fill: #ff8080; fill-opacity: 1.000" />
<rect x="139" y="242" width="158" height="2" style="stroke:#ff0000; stroke-opacity: 1.000; stroke-width: 1; fill: #ff8080; fill-opacity: 1.000" />
<rect x="139" y="244" width="158" height="2" style="stroke:#ff0000; stroke-opacity: 1.000; stroke-width: 1; fill: #ff8080; fill-opacity: 1.000" />
<rect x="139" y="246" width="158" height="2" style="stroke:#ff0000; stroke-opacity: 1.000; stroke-width: 1; fill: #ff8080; fill-opacity: 1.000" />
<rect x="139" y="248" width="158" height="1" style="stroke:#ff0000; stroke-opacity: 1.000; stroke-width: 1; fill: #ff8080; fill-opacity: 1.000" />
<rect x="139" y="249" width="158" height="2" style="stroke:#ff0000; stroke-opacity: 1.000; stroke-width: 1; fill: #ff8080; fill-opacity: 1.000" />
<rect x="139" y="251" width="158" height="2" style="stroke:#ff0000; stroke-opacity: 1.000; stroke-width: 1; fill: #ff8080; fill-opacity: 1.000" />
<rect x="139" y="253" width="158" height="2" style="stroke:#ff0000; stroke-opacity: 1.000; stroke-width: 1; fill: #ff8080; fill-opacity: 1.000" />
<rect x="139" y="255" width="158" height="2" style="stroke:#ff0000; stroke-opacity: 1.000; stroke-width: 1; fill: #ff8080; fill-opacity: 1.000" />
<rect x="139" y="257" width="158" height="1" style="stroke:#ff0000; stroke-opacity: 1.000; stroke-width: 1; fill: #ff8080; fill-opacity: 1.000" />
<rect x="292" y="60" width="59" height="1927" style="stroke:#202020; stroke-opacity: 1.000; stroke-width: 1; fill: #f0f0f0; fill-opacity: 0.753" />
<rect x="308" y="65" width="10" height="10" style="stroke:#ff0000; stroke-opacity: 1.000; stroke-width: 1; fill: #ff8080; fill-opacity: 1.000" />
<text x="338" y="74"  style="text-anchor:begin; font-size: 11" >1</text>
<rect x="308" y="84" width="10" height="10" style="stroke:#ff0000; stroke-opacity: 1.000; stroke-width: 1; fill: #ff8080; fill-opacity: 1.000" />
<text x="338" y="93"  style="text-anchor:begin; font-size: 11" >1</text>
<rect x="308" y="103" width="10" height="10" style="stroke:#ff0000; stroke-opacity: 1.000; stroke-width: 1; fill: #ff8080; fill-opacity: 1.000" />
<text x="338" y="112"  style="text-anchor:begin; font-size: 11" >1</text>
<rect x="308" y="122" width="10" height="10" style="stroke:#ff0000; stroke-opacity: 1.000; stroke-width: 1; fill: #ff8080; fill-opacity: 1.000" />
<text x="338" y="131"  style="text-anchor:begin; font-size: 11" >1</text>
<rect x="308" y="141" width="10" height="10" style="stroke:#ff0000; stroke-opacity: 1.000; stroke-width: 1; fill: #ff8080; fill-opacity: 1.000" />
<text x="338" y="150"  style="text-anchor:begin; font-size: 11" >1</text>
<rect x="308" y="160" width="10" height="10" style="stroke:#ff0000; stroke-opacity: 1.000; stroke-width: 1; fill: #ff8080; fill-opacity: 1.000" />
<text x="338" y="169"  style="text-anchor:begin; font-size: 11" >1</text>
<rect x="308" y="179" width="10" height="10" style="stroke:#ff0000; stroke-opacity: 1.000; stroke-width: 1; fill: #ff8080; fill-opacity: 1.000" />
<text x="338" y="188"  style="text-anchor:begin; font-size: 11" >1</text>
<rect x="308" y="198" width="10" height="10" style="stroke:#ff0000; stroke-opacity: 1.000; stroke-width: 1; fill: #ff8080; fill-opacity: 1.000" />
<text x="338" y="207"  style="text-anchor:begin; font-size: 11" >1</text>
<rect x="308" y="217" width="10" height="10" style="stroke:#ff0000; stroke-opacity: 1.000; stroke-width: 1; fill: #ff8080; fill-opacity: 1.000" />
<text x="338" y="226"  style="text-anchor:begin; font-size: 11" >1</text>
<rect x="308" y="236" width="10" height="10" style="stroke:#ff0000; stroke-opacity: 1.000; stroke-width: 1; fill: #ff8080; fill-opacity: 1.000" />
<text x="338" y="245"  style="text-anchor:begin; font-size: 11" >1</text>
<rect x="308" y="255" width="10" height="10" style="stroke:#ff0000; stroke-opacity: 1.000; stroke-width: 1; fill: #ff8080; fill-opacity: 1.000" />
<text x="338" y="264"  style="text-anchor:begin; font-size: 11" >1</text>
<rect x="308" y="274" width="10" height="10" style="stroke:#ff0000; stroke-opacity: 1.000; stroke-width: 1; fill: #ff8080; fill-opacity: 1.000" />
<text x="338" y="283"  style="text-anchor:begin; font-size: 11" >1</text>
<rect x="308" y="293" width="10" height="10" style="stroke:#ff0000; stroke-opacity: 1.000; stroke-width: 1; fill: #ff8080; fill-opacity: 1.000" />
<text x="338" y="302"  style="text-anchor:begin; font-size: 11" >1</text>
<rect x="308" y="312" width="10" height="10" style="stroke:#ff0000; stroke-opacity: 1.000; stroke-width: 1; fill: #ff8080; fill-opacity: 1.000" />
<text x="338" y="321"  style="text-anchor:begin; font-size: 11" >1</text>
<rect x="308" y="331" width="10" height="10" style="stroke:#ff0000; stroke-opacity: 1.000; stroke-width: 1; fill: #ff8080; fill-opacity: 1.000" />
<text x="338" y="340"  style="text-anchor:begin; font-size: 11" >1</text>
<rect x="308" y="350" width="10" height="10" style="stroke:#ff0000; stroke-opacity: 1.000; stroke-width: 1; fill: #ff8080; fill-opacity: 1.000" />
<text x="338" y="359"  style="text-anchor:begin; font-size: 11" >1</text>
<rect x="308" y="369" width="10" height="10" style="stroke:#ff0000; stroke-opacity: 1.000; stroke-width: 1; fill: #ff8080; fill-opacity: 1.000" />
<text x="338" y="378"  style="text-anchor:begin; font-size: 11" >1</text>
<rect x="308" y="388" width="10" height="10" style="stroke:#ff0000; stroke-opacity: 1.000; stroke-width: 1; fill: #ff8080; fill-opacity: 1.000" />
<text x="338" y="397"  style="text-anchor:begin; font-size: 11" >1</text>
<rect x="308" y="407" width="10" height="10" style="stroke:#ff0000; stroke-opacity: 1.000; stroke-width: 1; fill: #ff8080; fill-opacity: 1.000" />
<text x="338" y="416"  style="text-anchor:begin; font-size: 11" >1</text>
<rect x="308" y="426" width="10" height="10" style="stroke:#ff0000; stroke-opacity: 1.000; stroke-width: 1; fill: #ff8080; fill-opacity: 1.000" />
<text x="338" y="435"  style="text-anchor:begin; font-size: 11" >1</text>
<rect x="308" y="445" width="10" height="10" style="stroke:#ff0000; stroke-opacity: 1.000; stroke-width: 1; fill: #ff8080; fill-opacity: 1.000" />
<text x="338" y="454"  style="text-anchor:begin; font-size: 11" >1</text>
<rect x="308" y="464" width="10" height="10" style="stroke:#ff0000; stroke-opacity: 1.000; stroke-width: 1; fill: #ff8080; fill-opacity: 1.000" />
<text x="338" y="473"  style="text-anchor:begin; font-size: 11" >1</text>
<rect x="308" y="483" width="10" height="10" style="stroke:#ff0000; stroke-opacity: 1.000; stroke-width: 1; fill: #ff8080; fill-opacity: 1.000" />
<text x="338" y="492"  style="text-anchor:begin; font-size: 11" >1</text>
<rect x="308" y="502" width="10" height="10" style="stroke:#ff0000; stroke-opacity: 1.000; stroke-width: 1; fill: #ff8080; fill-opacity: 1.000" />
<text x="338" y="511"  style="text-anchor:begin; font-size: 11" >1</text>
<rect x="308" y="521" width="10" height="10" style="stroke:#ff0000; stroke-opacity: 1.000; stroke-width: 1; fill: #ff8080; fill-opacity: 1.000" />
<text x="338" y="530"  style="text-anchor:begin; font-size: 11" >1</text>
<rect x="308" y="540" width="10" height="10" style="stroke:#ff0000; stroke-opacity: 1.000; stroke-width: 1; fill: #ff8080; fill-opacity: 1.000" />
<text x="338" y="549"  style="text-anchor:begin; font-size: 11" >1</text>
<rect x="308" y="559" width="10" height="10" style="stroke:#ff0000; stroke-opacity: 1.000; stroke-width: 1; fill: #ff8080; fill-opacity: 1.000" />
<text x="338" y="568"  style="text-anchor:begin; font-size: 11" >1</text>
<rect x="308" y="578" width="10" height="10" style="stroke:#ff0000; stroke-opacity: 1.000; stroke-width: 1; fill: #ff8080; fill-opacity: 1.000" />
<text x="338" y="587"  style="text-anchor:begin; font-size: 11" >1</text>
<rect x="308" y="597" width="10" height="10" style="stroke:#ff0000; stroke-opacity: 1.000; stroke-width: 1; fill: #ff8080; fill-opacity: 1.000" />
<text x="338" y="606"  style="text-anchor:begin; font-size: 11" >1</text>
<rect x="308" y="616" width="10" height="10" style="stroke:#ff0000; stroke-opacity: 1.000; stroke-width: 1; fill: #ff8080; fill-opacity: 1.000" />
<text x="338" y="625"  style="text-anchor:begin; font-size: 11" >1</text>
<rect x="308" y="635" width="10" height="10" style="stroke:#ff0000; stroke-opacity: 1.000; stroke-width: 1; fill: #ff8080; fill-opacity: 1.000" />
<text x="338" y="644"  style="text-anchor:begin; font-size: 11" >1</text>
<rect x="308" y="654" width="10" height="10" style="stroke:#ff0000; stroke-opacity: 1.000; stroke-width: 1; fill: #ff8080; fill-opacity: 1.000" />
<text x="338" y="663"  style="text-anchor:begin; font-size: 11" >1</text>
<rect x="308" y="673" width="10" height="10" style="stroke:#ff0000; stroke-opacity: 1.000; stroke-width: 1; fill: #ff8080; fill-opacity: 1.000" />
<text x="338" y="682"  style="text-anchor:begin; font-size: 11" >1</text>
<rect x="308" y="692" width="10" height="10" style="stroke:#ff0000; stroke-opacity: 1.000; stroke-width: 1; fill: #ff8080; fill-opacity: 1.000" />
<text x="338" y="701"  style="text-anchor:begin; font-size: 11" >1</text>
<rect x="308" y="711" width="10" height="10" style="stroke:#ff0000; stroke-opacity: 1.000; stroke-width: 1; fill: #ff8080; fill-opacity: 1.000" />
<text x="338" y="720"  style="text-anchor:begin; font-size: 11" >1</text>
<rect x="308" y="730" width="10" height="10" style="stroke:#ff0000; stroke-opacity: 1.000; stroke-width: 1; fill: #ff8080; fill-opacity: 1.000" />
<text x="338" y="739"  style="text-anchor:begin; font-size: 11" >1</text>
<rect x="308" y="749" width="10" height="10" style="stroke:#ff0000; stroke-opacity: 1.000; stroke-width: 1; fill: #ff8080; fill-opacity: 1.000" />
<text x="338" y="758"  style="text-anchor:begin; font-size: 11" >1</text>
<rect x="308" y="768" width="10" height="10" style="stroke:#ff0000; stroke-opacity: 1.000; stroke-width: 1; fill: #ff8080; fill-opacity: 1.000" />
<text x="338" y="777"  style="text-anchor:begin; font-size: 11" >1</text>
<rect x="308" y="787" width="10" height="10" style="stroke:#ff0000; stroke-opacity: 1.000; stroke-width: 1; fill: #ff8080; fill-opacity: 1.000" />
<text x="338" y="796"  style="text-anchor:begin; font-size: 11" >1</text>
<rect x="308" y="806" width="10" height="10" style="stroke:#ff0000; stroke-opacity: 1.000; stroke-width: 1; fill: #ff8080; fill-opacity: 1.000" />
<text x="338" y="815"  style="text-anchor:begin; font-size: 11" >1</text>
<rect x="308" y="825" width="10" height="10" style="stroke:#ff0000; stroke-opacity: 1.000; stroke-width: 1; fill: #ff8080; fill-opacity: 1.000" />
<text x="338" y="834"  style="text-anchor:begin; font-size: 11" >1</text>
<rect x="308" y="844" width="10" height="10" style="stroke:#ff0000; stroke-opacity: 1.000; stroke-width: 1; fill: #ff8080; fill-opacity: 1.000" />
<text x="338" y="853"  style="text-anchor:begin; font-size: 11" >1</text>
<rect x="308" y="863" width="10" height="10" style="stroke:#ff0000; stroke-opacity: 1.000; stroke-width: 1; fill: #ff8080; fill-opacity: 1.000" />
<text x="338" y="872"  style="text-anchor:begin; font-size: 11" >1</text>
<rect x="308" y="882" width="10" height="10" style="stroke:#ff0000; stroke-opacity: 1.000; stroke-width: 1; fill: #ff8080; fill-opacity: 1.000" />
<text x="338" y="891"  style="text-anchor:begin; font-size: 11" >1</text>
<rect x="308" y="901" width="10" height="10" style="stroke:#ff0000; stroke-opacity: 1.000; stroke-width: 1; fill: #ff8080; fill-opacity: 1.000" />
<text x="338" y="910"  style="text-anchor:begin; font-size: 11" >1</text>
<rect x="308" y="920" width="10" height="10" style="stroke:#ff0000; stroke-opacity: 1.000; stroke-width: 1; fill: #ff8080; fill-opacity: 1.000" />
<text x="338" y="929"  style="text-anchor:begin; font-size: 11" >1</text>
<rect x="308" y="939" width="10" height="10" style="stroke:#ff0000; stroke-opacity: 1.000; stroke-width: 1; fill: #ff8080; fill-opacity: 1.000" />
<text x="338" y="948"  style="text-anchor:begin; font-size: 11" >1</text>
<rect x="308" y="958" width="10" height="10" style="stroke:#ff0000; stroke-opacity: 1.000; stroke-width: 1; fill: #ff8080; fill-opacity: 1.000" />
<text x="338" y="967"  style="text-anchor:begin; font-size: 11" >1</text>
<rect x="308" y="977" width="10" height="10" style="stroke:#ff0000; stroke-opacity: 1.000; stroke-width: 1; fill: #ff8080; fill-opacity: 1.000" />
<text x="338" y="986"  style="text-anchor:begin; font-size: 11" >1</text>
<rect x="308" y="996" width="10" height="10" style="stroke:#ff0000; stroke-opacity: 1.000; stroke-width: 1; fill: #ff8080; fill-opacity: 1.000" />
<text x="338" y="1005"  style="text-anchor:begin; font-size: 11" >1</text>
<rect x="308" y="1015" width="10" height="10" style="stroke:#ff0000; stroke-opacity: 1.000; stroke-width: 1; fill: #ff8080; fill-opacity: 1.000" />
<text x="338" y="1024"  style="text-anchor:begin; font-size: 11" >1</text>
<rect x="308" y="1034" width="10" height="10" style="stroke:#ff0000; stroke-opacity: 1.000; stroke-width: 1; fill: #ff8080; fill-opacity: 1.000" />
<text x="338" y="1043"  style="text-anchor:begin; font-size: 11" >1</text>
<rect x="308" y="1053" width="10" height="10" style="stroke:#ff0000; stroke-opacity: 1.000; stroke-width: 1; fill: #ff8080; fill-opacity: 1.000" />
<text x="338" y="1062"  style="text-anchor:begin; font-size: 11" >1</text>
<rect x="308" y="1072" width="10" height="10" style="stroke:#ff0000; stroke-opacity: 1.000; stroke-width: 1; fill: #ff8080; fill-opacity: 1.000" />
<text x="338" y="1081"  style="text-anchor:begin; font-size: 11" >1</text>
<rect x="308" y="1091" width="10" height="10" style="stroke:#ff0000; stroke-opacity: 1.000; stroke-width: 1; fill: #ff8080; fill-opacity: 1.000" />
<text x="338" y="1100"  style="text-anchor:begin; font-size: 11" >1</text>
<rect x="308" y="1110" width="10" height="10" style="stroke:#ff0000; stroke-opacity: 1.000; stroke-width: 1; fill: #ff8080; fill-opacity: 1.000" />
<text x="338" y="1119"  style="text-anchor:begin; font-size: 11" >1</text>
<rect x="308" y="1129" width="10" height="10" style="stroke:#ff0000; stroke-opacity: 1.000; stroke-width: 1; fill: #ff8080; fill-opacity: 1.000" />
<text x="338" y="1138"  style="text-anchor:begin; font-size: 11" >1</text>
<rect x="308" y="1148" width="10" height="10" style="stroke:#ff0000; stroke-opacity: 1.000; stroke-width: 1; fill: #ff8080; fill-opacity: 1.000" />
<text x="338" y="1157"  style="text-anchor:begin; font-size: 11" >1</text>
<rect x="308" y="1167" width="10" height="10" style="stroke:#ff0000; stroke-opacity: 1.000; stroke-width: 1; fill: #ff8080; fill-opacity: 1.000" />
<text x="338" y="1176"  style="text-anchor:begin; font-size: 11" >1</text>
<rect x="308" y="1186" width="10" height="10" style="stroke:#ff0000; stroke-opacity: 1.000; stroke-width: 1; fill: #ff8080; fill-opacity: 1.000" />
<text x="338" y="1195"  style="text-anchor:begin; font-size: 11" >1</text>
<rect x="308" y="1205" width="10" height="10" style="stroke:#ff0000; stroke-opacity: 1.000; stroke-width: 1; fill: #ff8080; fill-opacity: 1.000" />
<text x="338" y="1214"  style="text-anchor:begin; font-size: 11" >1</text>
<rect x="308" y="1224" width="10" height="10" style="stroke:#ff0000; stroke-opacity: 1.000; stroke-width: 1; fill: #ff8080; fill-opacity: 1.000" />
<text x="338" y="1233"  style="text-anchor:begin; font-size: 11" >1</text>
<rect x="308" y="1243" width="10" height="10" style="stroke:#ff0000; stroke-opacity: 1.000; stroke-width: 1; fill: #ff8080; fill-opacity: 1.000" />
<text x="338" y="1252"  style="text-anchor:begin; font-size: 11" >1</text>
<rect x="308" y="1262" width="10" height="10" style="stroke:#ff0000; stroke-opacity: 1.000; stroke-width: 1; fill: #ff8080; fill-opacity: 1.000" />
<text x="338" y="1271"  style="text-anchor:begin; font-size: 11" >1</text>
<rect x="308" y="1281" width="10" height="10" style="stroke:#ff0000; stroke-opacity: 1.000; stroke-width: 1; fill: #ff8080; fill-opacity: 1.000" />
<text x="338" y="1290"  style="text-anchor:begin; font-size: 11" >1</text>
<rect x="308" y="1300" width="10" height="10" style="stroke:#ff0000; stroke-opacity: 1.000; stroke-width: 1; fill: #ff8080; fill-opacity: 1.000" />
<text x="338" y="1309"  style="text-anchor:begin; font-size: 11" >1</text>
<rect x="308" y="1319" width="10" height="10" style="stroke:#ff0000; stroke-opacity: 1.000; stroke-width: 1; fill: #ff8080; fill-opacity: 1.000" />
<text x="338" y="1328"  style="text-anchor:begin; font-size: 11" >1</text>
<rect x="308" y="1338" width="10" height="10" style="stroke:#ff0000; stroke-opacity: 1.000; stroke-width: 1; fill: #ff8080; fill-opacity: 1.000" />
<text x="338" y="1347"  style="text-anchor:begin; font-size: 11" >1</text>
<rect x="308" y="1357" width="10" height="10" style="stroke:#ff0000; stroke-opacity: 1.000; stroke-width: 1; fill: #ff8080; fill-opacity: 1.000" />
<text x="338" y="1366"  style="text-anchor:begin; font-size: 11" >1</text>
<rect x="308" y="1376" width="10" height="10" style="stroke:#ff0000; stroke-opacity: 1.000; stroke-width: 1; fill: #ff8080; fill-opacity: 1.000" />
<text x="338" y="1385"  style="text-anchor:begin; font-size: 11" >1</text>
<rect x="308" y="1395" width="10" height="10" style="stroke:#ff0000; stroke-opacity: 1.000; stroke-width: 1; fill: #ff8080; fill-opacity: 1.000" />
<text x="338" y="1404"  style="text-anchor:begin; font-size: 11" >1</text>
<rect x="308" y="1414" width="10" height="10" style="stroke:#ff0000; stroke-opacity: 1.000; stroke-width: 1; fill: #ff8080; fill-opacity: 1.000" />
<text x="338" y="1423"  style="text-anchor:begin; font-size: 11" >1</text>
<rect x="308" y="1433" width="10" height="10" style="stroke:#ff0000; stroke-opacity: 1.000; stroke-width: 1; fill: #ff8080; fill-opacity: 1.000" />
<text x="338" y="1442"  style="text-anchor:begin; font-size: 11" >1</text>
<rect x="308" y="1452" width="10" height="10" style="stroke:#ff0000; stroke-opacity: 1.000; stroke-width: 1; fill: #ff8080; fill-opacity: 1.000" />
<text x="338" y="1461"  style="text-anchor:begin; font-size: 11" >1</text>
<rect x="308" y="1471" width="10" height="10" style="stroke:#ff0000; stroke-opacity: 1.000; stroke-width: 1; fill: #ff8080; fill-opacity: 1.000" />
<text x="338" y="1480"  style="text-anchor:begin; font-size: 11" >1</text>
<rect x="308" y="1490" width="10" height="10" style="stroke:#ff0000; stroke-opacity: 1.000; stroke-width: 1; fill: #ff8080; fill-opacity: 1.000" />
<text x="338" y="1499"  style="text-anchor:begin; font-size: 11" >1</text>
<rect x="308" y="1509" width="10" height="10" style="stroke:#ff0000; stroke-opacity: 1.000; stroke-width: 1; fill: #ff8080; fill-opacity: 1.000" />
<text x="338" y="1518"  style="text-anchor:begin; font-size: 11" >1</text>
<rect x="308" y="1528" width="10" height="10" style="stroke:#ff0000; stroke-opacity: 1.000; stroke-width: 1; fill: #ff8080; fill-opacity: 1.000" />
<text x="338" y="1537"  style="text-anchor:begin; font-size: 11" >1</text>
<rect x="308" y="1547" width="10" height="10" style="stroke:#ff0000; stroke-opacity: 1.000; stroke-width: 1; fill: #ff8080; fill-opacity: 1.000" />
<text x="338" y="1556"  style="text-anchor:begin; font-size: 11" >1</text>
<rect x="308" y="1566" width="10" height="10" style="stroke:#ff0000; stroke-opacity: 1.000; stroke-width: 1; fill: #ff8080; fill-opacity: 1.000" />
<text x="338" y="1575"  style="text-anchor:begin; font-size: 11" >1</text>
<rect x="308" y="1585" width="10" height="10" style="stroke:#ff0000; stroke-opacity: 1.000; stroke-width: 1; fill: #ff8080; fill-opacity: 1.000" />
<text x="338" y="1594"  style="text-anchor:begin; font-size: 11" >1</text>
<rect x="308" y="1604" width="10" height="10" style="stroke:#ff0000; stroke-opacity: 1.000; stroke-width: 1; fill: #ff8080; fill-opacity: 1.000" />
<text x="338" y="1613"  style="text-anchor:begin; font-size: 11" >1</text>
<rect x="308" y="1623" width="10" height="10" style="stroke:#ff0000; stroke-opacity: 1.000; stroke-width: 1; fill: #ff8080; fill-opacity: 1.000" />
<text x="338" y="1632"  style="text-anchor:begin; font-size: 11" >1</text>
<rect x="308" y="1642" width="10" height="10" style="stroke:#ff0000; stroke-opacity: 1.000; stroke-width: 1; fill: #ff8080; fill-opacity: 1.000" />
<text x="338" y="1651"  style="text-anchor:begin; font-size: 11" >1</text>
<rect x="308" y="1661" width="10" height="10" style="stroke:#ff0000; stroke-opacity: 1.000; stroke-width: 1; fill: #ff8080; fill-opacity: 1.000" />
<text x="338" y="1670"  style="text-anchor:begin; font-size: 11" >1</text>
<rect x="308" y="1680" width="10" height="10" style="stroke:#ff0000; stroke-opacity: 1.000; stroke-width: 1; fill: #ff8080; fill-opacity: 1.000" />
<text x="338" y="1689"  style="text-anchor:begin; font-size: 11" >1</text>
<rect x="308" y="1699" width="10" height="10" style="stroke:#ff0000; stroke-opacity: 1.000; stroke-width: 1; fill: #ff8080; fill-opacity: 1.000" />
<text x="338" y="1708"  style="text-anchor:begin; font-size: 11" >1</text>
<rect x="308" y="1718" width="10" height="10" style="stroke:#ff0000; stroke-opacity: 1.000; stroke-width: 1; fill: #ff8080; fill-opacity: 1.000" />
<text x="338" y="1727"  style="text-anchor:begin; font-size: 11" >1</text>
<rect x="308" y="1737" width="10" height="10" style="stroke:#ff0000; stroke-opacity: 1.000; stroke-width: 1; fill: #ff8080; fill-opacity: 1.000" />
<text x="338" y="1746"  style="text-anchor:begin; font-size: 11" >1</text>
<rect x="308" y="1756" width="10" height="10" style="stroke:#ff0000; stroke-opacity: 1.000; stroke-width: 1; fill: #ff8080; fill-opacity: 1.000" />
<text x="338" y="1765"  style="text-anchor:begin; font-size: 11" >1</text>
<rect x="308" y="1775" width="10" height="10" style="stroke:#ff0000; stroke-opacity: 1.000; stroke-width: 1; fill: #ff8080; fill-opacity: 1.000" />
<text x="338" y="1784"  style="text-anchor:begin; font-size: 11" >1</text>
<rect x="308" y="1794" width="10" height="10" style="stroke:#ff0000; stroke-opacity: 1.000; stroke-width: 1; fill: #ff8080; fill-opacity: 1.000" />
<text x="338" y="1803"  style="text-anchor:begin; font-size: 11" >1</text>
<rect x="308" y="1813" width="10" height="10" style="stroke:#ff0000; stroke-opacity: 1.000; stroke-width: 1; fill: #ff8080; fill-opacity: 1.000" />
<text x="338" y="1822"  style="text-anchor:begin; font-size: 11" >1</text>
<rect x="308" y="1832" width="10" height="10" style="stroke:#ff0000; stroke-opacity: 1.000; stroke-width: 1; fill: #ff8080; fill-opacity: 1.000" />
<text x="338" y="1841"  style="text-anchor:begin; font-size: 11" >1</text>
<rect x="308" y="1851" width="10" height="10" style="stroke:#ff0000; stroke-opacity: 1.000; stroke-width: 1; fill: #ff8080; fill-opacity: 1.000" />
<text x="338" y="1860"  style="text-anchor:begin; font-size: 11" >1</text>
<rect x="308" y="1870" width="10" height="10" style="stroke:#ff0000; stroke-opacity: 1.000; stroke-width: 1; fill: #ff8080; fill-opacity: 1.000" />
<text x="338" y="1879"  style="text-anchor:begin; font-size: 11" >1</text>
<rect x="308" y="1889" width="10" height="10" style="stroke:#ff0000; stroke-opacity: 1.000; stroke-width: 1; fill: #ff8080; fill-opacity: 1.000" />
<text x="338" y="1898"  style="text-anchor:begin; font-size: 11" >1</text>
<rect x="308" y="1908" width="10" height="10" style="stroke:#ff0000; stroke-opacity: 1.000; stroke-width: 1; fill: #ff8080; fill-opacity: 1.000" />
<text x="338" y="1917"  style="text-anchor:begin; font-size: 11" >1</text>
<rect x="308" y="1927" width="10" height="10" style="stroke:#ff0000; stroke-opacity: 1.000; stroke-width: 1; fill: #ff8080; fill-opacity: 1.000" />
<text x="338" y="1936"  style="text-anchor:begin; font-size: 11" >1</text>
<rect x="308" y="1946" width="10" height="10" style="stroke:#ff0000; stroke-opacity: 1.000; stroke-width: 1; fill: #ff8080; fill-opacity: 1.000" />
<text x="338" y="1955"  style="text-anchor:begin; font-size: 11" >1</text>
</g>
</svg>
